<?xml version="1.0" encoding="UTF-8" standalone="no"?>
<!-- Created with Inkscape (http://www.inkscape.org/) -->

<svg
   xmlns:dc="http://purl.org/dc/elements/1.1/"
   xmlns:cc="http://creativecommons.org/ns#"
   xmlns:rdf="http://www.w3.org/1999/02/22-rdf-syntax-ns#"
   xmlns:svg="http://www.w3.org/2000/svg"
   xmlns="http://www.w3.org/2000/svg"
   xmlns:sodipodi="http://sodipodi.sourceforge.net/DTD/sodipodi-0.dtd"
   xmlns:inkscape="http://www.inkscape.org/namespaces/inkscape"
   sodipodi:docname="FullBlack.svg"
   viewBox="0 0 1626.24 383.04001"
   height="383.04001"
   width="1626.24"
   xml:space="preserve"
   id="svg2"
   version="1.1"
   inkscape:version="0.92.5 (2060ec1f9f, 2020-04-08)"><metadata
     id="metadata8"><rdf:RDF><cc:Work
         rdf:about=""><dc:format>image/svg+xml</dc:format><dc:type
           rdf:resource="http://purl.org/dc/dcmitype/StillImage" /><dc:title></dc:title></cc:Work></rdf:RDF></metadata><defs
     id="defs6"><clipPath
       clipPathUnits="userSpaceOnUse"
       id="clipPath24"><path
         d="M 0,287.28 H 1219.68 V 0 H 0 Z"
         id="path22"
         inkscape:connector-curvature="0" /></clipPath><clipPath
       clipPathUnits="userSpaceOnUse"
       id="clipPath40"><path
         d="m 516.588,237.752 -36.413,-36.413 -36.414,36.413 h -48.09 L 480.19,153.233 395.668,68.779 h 48.104 l 36.336,36.306 36.336,-36.306 h 48.124 l -84.273,84.387 84.403,84.586 z"
         id="path38"
         inkscape:connector-curvature="0" /></clipPath><linearGradient
       x1="0"
       y1="0"
       x2="1"
       y2="0"
       gradientUnits="userSpaceOnUse"
       gradientTransform="matrix(0,168.97321,168.97321,0,480.18283,68.779137)"
       spreadMethod="pad"
       id="linearGradient58"><stop
         id="stop46"
         offset="0"
         style="stop-opacity:1;stop-color:#c454d2;opacity:1" /><stop
         id="stop48"
         offset="0.133663"
         style="stop-opacity:1;stop-color:#c454d2;opacity:1" /><stop
         id="stop50"
         offset="0.358911"
         style="stop-opacity:1;stop-color:#6d80ee;opacity:1" /><stop
         id="stop52"
         offset="0.571782"
         style="stop-opacity:1;stop-color:#02ddb9;opacity:1" /><stop
         id="stop54"
         offset="0.846535"
         style="stop-opacity:1;stop-color:#b1fa42;opacity:1" /><stop
         id="stop56"
         offset="1"
         style="stop-opacity:1;stop-color:#b1fa42;opacity:1" /></linearGradient><clipPath
       clipPathUnits="userSpaceOnUse"
       id="clipPath68"><path
         d="M 0,287.28 H 1219.68 V 0 H 0 Z"
         id="path66"
         inkscape:connector-curvature="0" /></clipPath><linearGradient
       id="linearGradient58-984"
       spreadMethod="pad"
       gradientTransform="matrix(0,168.97321,168.97321,0,480.18283,68.779137)"
       gradientUnits="userSpaceOnUse"
       y2="0"
       x2="1"
       y1="0"
       x1="0"><stop
         id="stop287"
         offset="0"
         style="stop-opacity:1;stop-color:#c454d2;opacity:1" /><stop
         id="stop289"
         offset="0.133663"
         style="stop-opacity:1;stop-color:#c454d2;opacity:1" /><stop
         id="stop291"
         offset="0.358911"
         style="stop-opacity:1;stop-color:#6d80ee;opacity:1" /><stop
         id="stop293"
         offset="0.571782"
         style="stop-opacity:1;stop-color:#02ddb9;opacity:1" /><stop
         id="stop295"
         offset="0.846535"
         style="stop-opacity:1;stop-color:#b1fa42;opacity:1" /><stop
         id="stop297"
         offset="1"
         style="stop-opacity:1;stop-color:#b1fa42;opacity:1" /></linearGradient></defs><sodipodi:namedview
     pagecolor="#ffffff"
     bordercolor="#666666"
     borderopacity="1"
     objecttolerance="10"
     gridtolerance="10"
     guidetolerance="10"
     inkscape:pageopacity="0"
     inkscape:pageshadow="2"
     inkscape:window-width="2313"
     inkscape:window-height="743"
     id="namedview4"
     showgrid="false"
     inkscape:zoom="1.3691276"
     inkscape:cx="876.14882"
     inkscape:cy="279.71139"
     inkscape:window-x="1283"
     inkscape:window-y="374"
     inkscape:window-maximized="0"
     inkscape:current-layer="g10" /><g
     id="g10"
     inkscape:groupmode="layer"
     inkscape:label="Full"
     transform="matrix(1.3333333,0,0,-1.3333333,0,383.04)"
     style="opacity:1"><g
       id="g18"
       style=""><g
         id="g20"
         clip-path="url(#clipPath24)"
         style=""><g
           id="g26"
           transform="translate(34.9977,284.7894)"
           style=""><path
             inkscape:connector-curvature="0"
             id="path28"
             style="fill:#000000;fill-opacity:1;fill-rule:evenodd;stroke:none;opacity:1"
             d="m 0,0 c -4.138,-1.656 -7.656,-4.015 -10.549,-7.076 -2.897,-3.065 -5.174,-6.665 -6.826,-10.801 -1.656,-4.14 -2.482,-8.69 -2.482,-13.656 v -46.733 h -15.141 v -33.768 h 15.141 v -103.237 h 33.509 v 103.237 h 25.375 v 33.768 H 13.652 v 46.733 H 62.61 V 2.483 H 13.652 C 8.688,2.483 4.134,1.653 0,0 m 1182.076,-134.326 c -1.738,4.135 -4.138,7.697 -7.198,10.676 -3.064,2.98 -6.663,5.338 -10.797,7.077 -4.138,1.738 -8.606,2.607 -13.404,2.607 h -89.852 v 34.016 h 112.44 v 33.767 h -112.44 c -4.468,0 -8.73,-0.868 -12.783,-2.607 -4.056,-1.737 -7.613,-4.096 -10.673,-7.076 -3.064,-2.979 -5.503,-6.541 -7.323,-10.676 -1.822,-4.14 -2.73,-8.609 -2.73,-13.408 v -34.016 c 0,-9.932 3.102,-18.044 9.309,-24.333 6.205,-6.293 14.271,-9.435 24.2,-9.435 h 89.852 v -33.768 h -120.631 v -33.769 h 120.631 c 10.425,0 18.698,3.105 24.822,9.312 6.12,6.207 9.183,14.358 9.183,24.457 v 33.768 c 0,4.798 -0.868,9.268 -2.606,13.408 M 962.612,-181.502 H 860.845 V -79.95 h 101.767 z m 23.207,125.636 c -3.064,2.98 -6.62,5.339 -10.673,7.076 -4.057,1.739 -8.233,2.607 -12.534,2.607 H 860.845 V 2.483 h -33.509 v -217.754 h 135.276 c 9.928,0 17.995,3.105 24.2,9.312 6.205,6.207 9.308,14.358 9.308,24.457 v 102.296 c 0,4.633 -0.954,8.939 -2.855,12.912 -1.903,3.973 -4.386,7.449 -7.446,10.428 M 762.804,-181.502 H 661.533 v 33.768 h 101.271 z m 24.448,125.884 c -3.063,2.98 -6.663,5.296 -10.796,6.953 -4.139,1.652 -8.688,2.482 -13.652,2.482 H 628.025 V -79.95 h 134.779 v -34.016 h -101.27 c -4.964,0 -9.475,-0.831 -13.528,-2.483 -4.056,-1.657 -7.57,-3.973 -10.548,-6.952 -2.979,-2.98 -5.298,-6.541 -6.951,-10.677 -1.656,-4.14 -2.482,-8.691 -2.482,-13.656 v -33.768 c 0,-9.932 3.102,-18.044 9.308,-24.333 6.206,-6.293 14.272,-9.436 24.201,-9.436 H 796.809 V -79.95 c 0,4.966 -0.83,9.516 -2.482,13.656 -1.657,4.135 -4.014,7.697 -7.075,10.676 M 561.754,-215.271 h 34.004 V 2.483 h -34.004 z m -266.379,33.769 H 193.856 v 135.319 h -33.508 v -135.319 c 0,-9.932 3.103,-18.044 9.308,-24.333 6.205,-6.293 14.272,-9.436 24.2,-9.436 h 101.519 c 9.929,0 18.034,3.105 24.325,9.312 6.286,6.207 9.431,14.358 9.431,24.457 V -46.183 H 295.375 Z M 93.829,-215.271 h 34.005 V 2.483 H 93.829 Z" /></g><g
           id="g30"
           transform="translate(524.6271,152.7513)"
           style=""><path
             inkscape:connector-curvature="0"
             id="path32"
             style="fill:#000000;fill-opacity:1;fill-rule:evenodd;stroke:none;opacity:1"
             d="M 0,0 40.625,-40.475 V 40.658 Z M -128.349,-41.545 -86.655,0 -128.349,41.729 Z" /></g></g></g><g
       id="g34"
       style=""><g
         id="g36"
         clip-path="url(#clipPath40)"
         style=""><g
           id="g42"
           style=""><g
             id="g44"
             style=""><path
               inkscape:connector-curvature="0"
               id="path60"
               style="fill:url(#linearGradient58-984);stroke:none;opacity:1"
               d="m 516.588,237.752 -36.413,-36.413 -36.414,36.413 h -48.09 L 480.19,153.233 395.668,68.779 h 48.104 l 36.336,36.306 36.336,-36.306 h 48.124 l -84.273,84.387 84.403,84.586 z" /></g></g></g></g><g
       id="g62"
       style=""><g
         id="g64"
         clip-path="url(#clipPath68)"
         style=""><g
           id="g70"
           transform="translate(995.965,16.2269)"
           style=""><path
             inkscape:connector-curvature="0"
             id="path72"
             style="fill:#000000;fill-opacity:1;fill-rule:evenodd;stroke:none;opacity:1"
             d="m 0,0 c 0.283,0.85 0.682,1.628 1.196,2.336 0.515,0.708 1.12,1.313 1.815,1.815 0.695,0.502 1.461,0.895 2.298,1.178 0.835,0.283 1.704,0.425 2.605,0.425 0.874,0 1.724,-0.142 2.548,-0.425 0.823,-0.283 1.583,-0.683 2.277,-1.197 0.696,-0.516 1.313,-1.12 1.854,-1.815 C 15.133,1.622 15.544,0.85 15.828,0 Z m 21.503,-2.626 c 0,1.854 -0.361,3.604 -1.081,5.252 -0.721,1.647 -1.699,3.09 -2.934,4.325 -1.236,1.236 -2.677,2.214 -4.324,2.935 -1.647,0.72 -3.397,1.082 -5.25,1.082 -1.853,0 -3.603,-0.362 -5.251,-1.082 C 1.017,9.165 -0.432,8.187 -1.68,6.951 -2.928,5.716 -3.913,4.273 -4.633,2.626 -5.354,0.978 -5.714,-0.772 -5.714,-2.626 c 0,-1.853 0.36,-3.604 1.081,-5.252 0.72,-1.648 1.705,-3.09 2.953,-4.325 1.248,-1.235 2.697,-2.215 4.343,-2.935 1.648,-0.72 3.398,-1.082 5.251,-1.082 1.363,0 2.683,0.2 3.957,0.599 1.274,0.399 2.457,0.966 3.552,1.699 1.093,0.734 2.071,1.615 2.933,2.646 0.863,1.029 1.551,2.162 2.066,3.398 h -6.023 c -1.673,-2.06 -3.835,-3.09 -6.485,-3.09 -0.901,0 -1.77,0.136 -2.605,0.406 -0.837,0.27 -1.603,0.657 -2.298,1.159 -0.695,0.502 -1.3,1.106 -1.815,1.814 C 0.682,-6.881 0.283,-6.102 0,-5.252 h 21.232 c 0.18,0.823 0.271,1.699 0.271,2.626 m -53.507,13.169 h -18.762 v -26.299 h 5.211 V 5.29 h 13.551 V 0 h 5.25 v 5.29 c 0,3.502 -1.75,5.253 -5.25,5.253 m -48.101,-21.047 h -15.75 v 5.252 h 15.75 z m 3.802,19.579 c -0.476,0.463 -1.036,0.823 -1.679,1.081 -0.644,0.257 -1.351,0.387 -2.123,0.387 h -20.962 V 5.29 h 20.962 V 0 h -15.75 c -0.773,0 -1.475,-0.129 -2.105,-0.386 -0.631,-0.258 -1.178,-0.618 -1.641,-1.082 -0.463,-0.463 -0.824,-1.017 -1.081,-1.66 -0.257,-0.643 -0.385,-1.351 -0.385,-2.124 v -5.252 c 0,-1.545 0.482,-2.807 1.447,-3.784 0.965,-0.98 2.22,-1.468 3.765,-1.468 h 21.039 V 5.29 c 0,0.772 -0.129,1.481 -0.386,2.124 -0.258,0.644 -0.624,1.197 -1.101,1.661 m -60.821,-17.609 -5.907,19.077 h -3.938 l -5.945,-19.077 -7.219,19.077 h -5.906 l 10.5,-26.299 h 5.251 L -145,0 l 5.251,-15.756 h 5.211 l 10.539,26.299 h -5.906 z m -56.401,26.53 h -5.25 v -28.5 c 0,-1.545 0.488,-2.807 1.466,-3.784 0.978,-0.98 2.24,-1.468 3.784,-1.468 h 5.289 v 5.252 h -5.289 V 5.29 h 5.289 v 5.253 h -5.289 z m -36.057,-0.27 c -0.644,-0.258 -1.19,-0.625 -1.641,-1.101 -0.451,-0.477 -0.804,-1.037 -1.061,-1.68 -0.258,-0.644 -0.387,-1.351 -0.387,-2.124 v -2.278 h -2.354 V 5.29 h 2.354 v -21.046 h 5.212 V 5.29 h 3.281 v 5.253 h -3.281 v 2.278 h 4.787 v 5.29 h -4.787 c -0.772,0 -1.48,-0.129 -2.123,-0.385 m -33.046,-23.557 c -0.437,-1.004 -1.036,-1.887 -1.795,-2.646 -0.759,-0.759 -1.64,-1.365 -2.644,-1.815 -1.004,-0.45 -2.072,-0.676 -3.204,-0.676 -1.133,0 -2.208,0.219 -3.224,0.657 -1.017,0.438 -1.905,1.037 -2.663,1.795 -0.76,0.76 -1.365,1.648 -1.815,2.665 -0.451,1.017 -0.675,2.091 -0.675,3.225 0,1.133 0.217,2.207 0.656,3.225 0.437,1.016 1.035,1.904 1.795,2.664 0.759,0.759 1.646,1.365 2.664,1.815 1.015,0.45 2.103,0.676 3.262,0.676 1.132,0 2.2,-0.226 3.204,-0.676 1.004,-0.45 1.885,-1.056 2.644,-1.815 0.759,-0.76 1.358,-1.648 1.795,-2.664 0.438,-1.018 0.656,-2.092 0.656,-3.225 0,-1.134 -0.218,-2.201 -0.656,-3.205 m 1.892,12.782 c -1.236,1.236 -2.67,2.214 -4.304,2.935 -1.636,0.72 -3.379,1.082 -5.231,1.082 -1.879,0 -3.643,-0.362 -5.29,-1.082 -1.646,-0.721 -3.087,-1.699 -4.323,-2.935 -1.235,-1.235 -2.214,-2.678 -2.934,-4.325 -0.721,-1.648 -1.081,-3.398 -1.081,-5.252 0,-1.853 0.36,-3.604 1.081,-5.252 0.72,-1.648 1.699,-3.09 2.934,-4.325 1.236,-1.235 2.677,-2.215 4.323,-2.935 1.647,-0.72 3.411,-1.082 5.29,-1.082 1.852,0 3.595,0.362 5.231,1.082 1.634,0.72 3.068,1.7 4.304,2.935 1.235,1.235 2.214,2.677 2.934,4.325 0.72,1.648 1.08,3.399 1.08,5.252 0,1.854 -0.36,3.604 -1.08,5.252 -0.72,1.647 -1.699,3.09 -2.934,4.325 m -47.387,-8.457 c -0.477,0.463 -1.036,0.83 -1.68,1.101 -0.643,0.27 -1.338,0.405 -2.085,0.405 h -13.974 v 5.29 h 17.488 v 5.253 h -17.488 c -0.695,0 -1.358,-0.136 -1.989,-0.406 -0.63,-0.271 -1.183,-0.637 -1.66,-1.101 -0.476,-0.463 -0.855,-1.017 -1.138,-1.66 -0.284,-0.644 -0.425,-1.339 -0.425,-2.086 V 0 c 0,-1.545 0.483,-2.807 1.448,-3.784 0.965,-0.98 2.22,-1.468 3.764,-1.468 h 13.974 v -5.252 h -18.761 v -5.252 h 18.761 c 1.622,0 2.909,0.483 3.862,1.448 0.951,0.965 1.427,2.233 1.427,3.804 v 5.252 c 0,0.746 -0.134,1.441 -0.405,2.085 -0.269,0.644 -0.643,1.197 -1.119,1.661 M -407.936,0 c 0.283,0.85 0.682,1.628 1.197,2.336 0.514,0.708 1.119,1.313 1.814,1.815 0.695,0.502 1.461,0.895 2.298,1.178 0.835,0.283 1.704,0.425 2.606,0.425 0.874,0 1.723,-0.142 2.547,-0.425 0.823,-0.283 1.583,-0.683 2.278,-1.197 0.695,-0.516 1.312,-1.12 1.853,-1.815 0.54,-0.695 0.951,-1.467 1.235,-2.317 z m 17.488,6.951 c -1.235,1.236 -2.677,2.214 -4.323,2.935 -1.648,0.72 -3.398,1.082 -5.25,1.082 -1.854,0 -3.604,-0.362 -5.251,-1.082 -1.647,-0.721 -3.095,-1.699 -4.343,-2.935 -1.249,-1.235 -2.233,-2.678 -2.953,-4.325 -0.721,-1.648 -1.081,-3.398 -1.081,-5.252 0,-1.853 0.36,-3.604 1.081,-5.252 0.72,-1.648 1.704,-3.09 2.953,-4.325 1.248,-1.235 2.696,-2.215 4.343,-2.935 1.647,-0.72 3.397,-1.082 5.251,-1.082 1.363,0 2.682,0.2 3.956,0.599 1.274,0.399 2.458,0.966 3.552,1.699 1.093,0.734 2.071,1.615 2.933,2.646 0.863,1.029 1.551,2.162 2.066,3.398 h -6.022 c -1.673,-2.06 -3.836,-3.09 -6.485,-3.09 -0.902,0 -1.771,0.136 -2.606,0.406 -0.837,0.27 -1.603,0.657 -2.298,1.159 -0.695,0.502 -1.3,1.106 -1.814,1.814 -0.515,0.708 -0.914,1.487 -1.197,2.337 h 21.233 c 0.18,0.823 0.27,1.699 0.27,2.626 0,1.854 -0.361,3.604 -1.081,5.252 -0.721,1.647 -1.699,3.09 -2.934,4.325 m -56.324,-15.485 -7.258,19.077 h -5.907 l 10.54,-26.299 h 5.25 l 10.5,26.299 h -5.906 z m -41.346,-7.222 h 5.289 v 26.299 h -5.289 z m -28.953,33.752 h -5.25 v -28.5 c 0,-1.545 0.488,-2.807 1.467,-3.784 0.978,-0.98 2.239,-1.468 3.783,-1.468 h 5.289 v 5.252 h -5.289 V 5.29 h 5.289 v 5.253 h -5.289 z m -33.895,-28.5 h -15.751 v 5.252 h 15.751 z m 3.803,19.579 c -0.477,0.463 -1.037,0.823 -1.68,1.081 -0.643,0.257 -1.351,0.387 -2.123,0.387 h -20.962 V 5.29 h 20.962 V 0 h -15.751 c -0.772,0 -1.473,-0.129 -2.103,-0.386 -0.632,-0.258 -1.178,-0.618 -1.641,-1.082 -0.463,-0.463 -0.824,-1.017 -1.081,-1.66 -0.258,-0.643 -0.386,-1.351 -0.386,-2.124 v -5.252 c 0,-1.545 0.482,-2.807 1.448,-3.784 0.964,-0.98 2.219,-1.468 3.763,-1.468 h 21.04 V 5.29 c 0,0.772 -0.129,1.481 -0.386,2.124 -0.257,0.644 -0.624,1.197 -1.1,1.661 m -60.822,-17.609 -7.258,19.077 h -5.906 l 10.539,-26.299 h 5.25 l 10.501,26.299 h -5.907 z m -39.068,2.703 c -0.438,-1.004 -1.036,-1.887 -1.796,-2.646 -0.759,-0.759 -1.64,-1.365 -2.644,-1.815 -1.003,-0.45 -2.072,-0.676 -3.204,-0.676 -1.133,0 -2.207,0.219 -3.223,0.657 -1.017,0.438 -1.905,1.037 -2.664,1.795 -0.76,0.76 -1.365,1.648 -1.814,2.665 -0.451,1.017 -0.676,2.091 -0.676,3.225 0,1.133 0.218,2.207 0.656,3.225 0.438,1.016 1.036,1.904 1.795,2.664 0.759,0.759 1.647,1.365 2.664,1.815 1.017,0.45 2.104,0.676 3.262,0.676 1.132,0 2.201,-0.226 3.204,-0.676 1.004,-0.45 1.885,-1.056 2.644,-1.815 0.76,-0.76 1.358,-1.648 1.796,-2.664 0.437,-1.018 0.656,-2.092 0.656,-3.225 0,-1.134 -0.219,-2.201 -0.656,-3.205 m 1.891,12.782 c -1.235,1.236 -2.67,2.214 -4.304,2.935 -1.635,0.72 -3.378,1.082 -5.231,1.082 -1.879,0 -3.642,-0.362 -5.289,-1.082 -1.647,-0.721 -3.088,-1.699 -4.324,-2.935 -1.235,-1.235 -2.213,-2.678 -2.934,-4.325 -0.72,-1.648 -1.08,-3.398 -1.08,-5.252 0,-1.853 0.36,-3.604 1.08,-5.252 0.721,-1.648 1.699,-3.09 2.934,-4.325 1.236,-1.235 2.677,-2.215 4.324,-2.935 1.647,-0.72 3.41,-1.082 5.289,-1.082 1.853,0 3.596,0.362 5.231,1.082 1.634,0.72 3.069,1.7 4.304,2.935 1.236,1.235 2.214,2.677 2.934,4.325 0.721,1.648 1.082,3.399 1.082,5.252 0,1.854 -0.361,3.604 -1.082,5.252 -0.72,1.647 -1.698,3.09 -2.934,4.325 m -51.112,3.592 h -19.65 v -26.299 h 5.212 V 5.29 h 14.438 v -21.046 h 5.251 V 5.29 c 0,3.502 -1.751,5.253 -5.251,5.253 m -48.603,0 h -19.65 v -26.299 h 5.212 V 5.29 h 14.438 v -21.046 h 5.25 V 5.29 c 0,3.502 -1.75,5.253 -5.25,5.253 m -48.835,-26.299 h 5.289 v 26.299 h -5.289 z" /></g></g></g></g></svg>
